<?xml version="1.0" standalone="no"?>
<!DOCTYPE svg PUBLIC "-//W3C//DTD SVG 20010904//EN"
 "http://www.w3.org/TR/2001/REC-SVG-20010904/DTD/svg10.dtd">
<svg version="1.0" xmlns="http://www.w3.org/2000/svg"
 width="900.000000pt" height="900.000000pt" viewBox="0 0 900.000000 900.000000"
 preserveAspectRatio="xMidYMid meet">

<g transform="translate(0.000000,900.000000) scale(0.100000,-0.100000)"
fill="#000000" stroke="none">
<path d="M3355 8089 c-1015 -94 -1898 -760 -2270 -1712 -389 -995 -151 -2123
609 -2883 417 -416 930 -675 1517 -765 173 -27 540 -32 704 -11 390 52 746
174 1066 368 79 47 142 91 311 213 18 13 95 -61 1216 -1181 1148 -1147 1199
-1196 1247 -1209 191 -51 349 63 349 251 0 128 73 47 -1229 1350 l-1184 1185
65 85 c365 479 560 1094 540 1700 -23 701 -297 1332 -790 1826 -415 415 -935
677 -1512 764 -161 24 -484 34 -639 19z m456 -539 c492 -50 940 -258 1293
-600 186 -181 313 -354 430 -590 485 -978 167 -2161 -744 -2763 -784 -518
-1808 -468 -2550 123 -168 134 -367 360 -479 543 -390 639 -426 1433 -97 2097
177 356 460 667 801 880 389 243 883 356 1346 310z"/>
</g>
</svg>
